solid ASCII
  facet normal -7.071068e-01 -5.861679e-15 7.071068e-01
    outer loop
      vertex   -1.425736e+01 7.500000e-01 4.600000e+01
      vertex   -1.850000e+01 7.500000e-01 4.175736e+01
      vertex   -1.425736e+01 -7.500000e-01 4.600000e+01
    endloop
  endfacet
  facet normal -7.071068e-01 0.000000e+00 7.071068e-01
    outer loop
      vertex   -1.425736e+01 -7.500000e-01 4.600000e+01
      vertex   -1.850000e+01 7.500000e-01 4.175736e+01
      vertex   -1.850000e+01 -7.500000e-01 4.175736e+01
    endloop
  endfacet
  facet normal 7.071068e-01 0.000000e+00 7.071068e-01
    outer loop
      vertex   1.850000e+01 7.500000e-01 4.175736e+01
      vertex   1.425736e+01 7.500000e-01 4.600000e+01
      vertex   1.850000e+01 -7.500000e-01 4.175736e+01
    endloop
  endfacet
  facet normal 7.071068e-01 -7.894921e-16 7.071068e-01
    outer loop
      vertex   1.850000e+01 -7.500000e-01 4.175736e+01
      vertex   1.425736e+01 7.500000e-01 4.600000e+01
      vertex   1.425736e+01 -7.500000e-01 4.600000e+01
    endloop
  endfacet
  facet normal 0.000000e+00 -0.000000e+00 1.000000e+00
    outer loop
      vertex   -1.850000e+01 -2.287868e+01 4.800000e+01
      vertex   -1.850000e+01 2.287868e+01 4.800000e+01
      vertex   -2.000000e+01 -2.350000e+01 4.800000e+01
    endloop
  endfacet
  facet normal 0.000000e+00 0.000000e+00 1.000000e+00
    outer loop
      vertex   1.850000e+01 2.287868e+01 4.800000e+01
      vertex   1.850000e+01 -2.287868e+01 4.800000e+01
      vertex   2.000000e+01 -2.350000e+01 4.800000e+01
    endloop
  endfacet
  facet normal 3.196155e-16 1.000000e+00 4.673944e-17
    outer loop
      vertex   -1.425736e+01 7.500000e-01 4.600000e+01
      vertex   -1.700000e+01 7.500000e-01 3.150000e+01
      vertex   -1.850000e+01 7.500000e-01 4.175736e+01
    endloop
  endfacet
  facet normal 0.000000e+00 1.000000e+00 0.000000e+00
    outer loop
      vertex   -1.850000e+01 7.500000e-01 4.175736e+01
      vertex   -1.700000e+01 7.500000e-01 3.150000e+01
      vertex   -1.771475e+01 7.500000e-01 3.221475e+01
    endloop
  endfacet
  facet normal -2.310938e-15 1.000000e+00 -1.901640e-16
    outer loop
      vertex   -1.850000e+01 7.500000e-01 4.175736e+01
      vertex   -1.771475e+01 7.500000e-01 3.221475e+01
      vertex   -1.850000e+01 7.500000e-01 3.300000e+01
    endloop
  endfacet
  facet normal -5.342215e-32 1.000000e+00 1.071940e-16
    outer loop
      vertex   -1.425736e+01 7.500000e-01 4.600000e+01
      vertex   1.425736e+01 7.500000e-01 4.600000e+01
      vertex   -1.700000e+01 7.500000e-01 3.150000e+01
    endloop
  endfacet
  facet normal -0.000000e+00 1.000000e+00 1.071940e-16
    outer loop
      vertex   -1.700000e+01 7.500000e-01 3.150000e+01
      vertex   1.425736e+01 7.500000e-01 4.600000e+01
      vertex   1.700000e+01 7.500000e-01 3.150000e+01
    endloop
  endfacet
  facet normal -0.000000e+00 1.000000e+00 0.000000e+00
    outer loop
      vertex   -1.700000e+01 7.500000e-01 3.150000e+01
      vertex   1.700000e+01 7.500000e-01 3.150000e+01
      vertex   1.700000e+01 7.500000e-01 1.700545e+01
    endloop
  endfacet
  facet normal -3.196155e-16 1.000000e+00 4.673944e-17
    outer loop
      vertex   1.425736e+01 7.500000e-01 4.600000e+01
      vertex   1.850000e+01 7.500000e-01 4.175736e+01
      vertex   1.700000e+01 7.500000e-01 3.150000e+01
    endloop
  endfacet
  facet normal 0.000000e+00 1.000000e+00 0.000000e+00
    outer loop
      vertex   1.700000e+01 7.500000e-01 3.150000e+01
      vertex   1.850000e+01 7.500000e-01 4.175736e+01
      vertex   1.771475e+01 7.500000e-01 3.221475e+01
    endloop
  endfacet
  facet normal 0.000000e+00 1.000000e+00 0.000000e+00
    outer loop
      vertex   1.771475e+01 7.500000e-01 3.221475e+01
      vertex   1.850000e+01 7.500000e-01 4.175736e+01
      vertex   1.850000e+01 7.500000e-01 3.300000e+01
    endloop
  endfacet
  facet normal 0.000000e+00 1.000000e+00 -0.000000e+00
    outer loop
      vertex   1.700000e+01 7.500000e-01 1.500000e+00
      vertex   1.589649e+01 7.500000e-01 1.500000e+00
      vertex   1.700000e+01 7.500000e-01 1.700545e+01
    endloop
  endfacet
  facet normal 0.000000e+00 1.000000e+00 0.000000e+00
    outer loop
      vertex   1.700000e+01 7.500000e-01 1.700545e+01
      vertex   1.589649e+01 7.500000e-01 1.500000e+00
      vertex   1.475736e+01 7.500000e-01 1.500000e+00
    endloop
  endfacet
  facet normal 0.000000e+00 1.000000e+00 0.000000e+00
    outer loop
      vertex   1.700000e+01 7.500000e-01 1.700545e+01
      vertex   1.475736e+01 7.500000e-01 1.500000e+00
      vertex   -4.517559e-01 7.500000e-01 1.500000e+00
    endloop
  endfacet
  facet normal 0.000000e+00 1.000000e+00 0.000000e+00
    outer loop
      vertex   1.700000e+01 7.500000e-01 1.700545e+01
      vertex   -4.517559e-01 7.500000e-01 1.500000e+00
      vertex   -1.700000e+01 7.500000e-01 1.599455e+01
    endloop
  endfacet
  facet normal 0.000000e+00 1.000000e+00 0.000000e+00
    outer loop
      vertex   -1.700000e+01 7.500000e-01 1.599455e+01
      vertex   -4.517559e-01 7.500000e-01 1.500000e+00
      vertex   -1.475736e+01 7.500000e-01 1.500000e+00
    endloop
  endfacet
  facet normal 0.000000e+00 1.000000e+00 0.000000e+00
    outer loop
      vertex   -1.700000e+01 7.500000e-01 1.599455e+01
      vertex   -1.475736e+01 7.500000e-01 1.500000e+00
      vertex   -1.589649e+01 7.500000e-01 1.500000e+00
    endloop
  endfacet
  facet normal 0.000000e+00 1.000000e+00 0.000000e+00
    outer loop
      vertex   -1.589649e+01 7.500000e-01 1.500000e+00
      vertex   -1.700000e+01 7.500000e-01 1.500000e+00
      vertex   -1.700000e+01 7.500000e-01 1.599455e+01
    endloop
  endfacet
  facet normal 0.000000e+00 1.000000e+00 0.000000e+00
    outer loop
      vertex   -1.700000e+01 7.500000e-01 1.599455e+01
      vertex   -1.700000e+01 7.500000e-01 3.150000e+01
      vertex   1.700000e+01 7.500000e-01 1.700545e+01
    endloop
  endfacet
  facet normal -1.000000e+00 -0.000000e+00 0.000000e+00
    outer loop
      vertex   1.850000e+01 2.287868e+01 4.800000e+01
      vertex   1.850000e+01 7.500000e-01 4.175736e+01
      vertex   1.850000e+01 -2.287868e+01 4.800000e+01
    endloop
  endfacet
  facet normal -1.000000e+00 0.000000e+00 0.000000e+00
    outer loop
      vertex   1.850000e+01 -2.287868e+01 4.800000e+01
      vertex   1.850000e+01 7.500000e-01 4.175736e+01
      vertex   1.850000e+01 -7.500000e-01 4.175736e+01
    endloop
  endfacet
  facet normal -1.000000e+00 0.000000e+00 0.000000e+00
    outer loop
      vertex   1.850000e+01 -2.287868e+01 4.800000e+01
      vertex   1.850000e+01 -7.500000e-01 4.175736e+01
      vertex   1.850000e+01 -2.287868e+01 3.300000e+01
    endloop
  endfacet
  facet normal -1.000000e+00 -1.077419e-08 2.722494e-08
    outer loop
      vertex   1.850000e+01 -2.287868e+01 3.300000e+01
      vertex   1.850000e+01 -7.500000e-01 4.175736e+01
      vertex   1.850000e+01 -7.500000e-01 3.300000e+01
    endloop
  endfacet
  facet normal -1.000000e+00 0.000000e+00 -0.000000e+00
    outer loop
      vertex   1.850000e+01 2.287868e+01 4.800000e+01
      vertex   1.850000e+01 2.287868e+01 3.300000e+01
      vertex   1.850000e+01 7.500000e-01 4.175736e+01
    endloop
  endfacet
  facet normal -1.000000e+00 0.000000e+00 0.000000e+00
    outer loop
      vertex   1.850000e+01 7.500000e-01 4.175736e+01
      vertex   1.850000e+01 2.287868e+01 3.300000e+01
      vertex   1.850000e+01 7.500000e-01 3.300000e+01
    endloop
  endfacet
  facet normal 3.424452e-16 -1.000000e+00 5.007797e-17
    outer loop
      vertex   -1.850000e+01 -7.500000e-01 4.175736e+01
      vertex   -1.700000e+01 -7.500000e-01 3.150000e+01
      vertex   -1.425736e+01 -7.500000e-01 4.600000e+01
    endloop
  endfacet
  facet normal 0.000000e+00 -1.000000e+00 1.148507e-16
    outer loop
      vertex   -1.425736e+01 -7.500000e-01 4.600000e+01
      vertex   -1.700000e+01 -7.500000e-01 3.150000e+01
      vertex   1.700000e+01 -7.500000e-01 3.150000e+01
    endloop
  endfacet
  facet normal 0.000000e+00 -1.000000e+00 1.148507e-16
    outer loop
      vertex   -1.425736e+01 -7.500000e-01 4.600000e+01
      vertex   1.700000e+01 -7.500000e-01 3.150000e+01
      vertex   1.425736e+01 -7.500000e-01 4.600000e+01
    endloop
  endfacet
  facet normal -3.424452e-16 -1.000000e+00 5.007797e-17
    outer loop
      vertex   1.425736e+01 -7.500000e-01 4.600000e+01
      vertex   1.700000e+01 -7.500000e-01 3.150000e+01
      vertex   1.850000e+01 -7.500000e-01 4.175736e+01
    endloop
  endfacet
  facet normal 0.000000e+00 -1.000000e+00 0.000000e+00
    outer loop
      vertex   1.850000e+01 -7.500000e-01 4.175736e+01
      vertex   1.700000e+01 -7.500000e-01 3.150000e+01
      vertex   1.776460e+01 -7.500000e-01 3.226460e+01
    endloop
  endfacet
  facet normal 2.454695e-15 -1.000000e+00 -1.901640e-16
    outer loop
      vertex   1.850000e+01 -7.500000e-01 4.175736e+01
      vertex   1.776460e+01 -7.500000e-01 3.226460e+01
      vertex   1.850000e+01 -7.500000e-01 3.300000e+01
    endloop
  endfacet
  facet normal -2.454695e-15 -1.000000e+00 -1.901640e-16
    outer loop
      vertex   -1.850000e+01 -7.500000e-01 3.300000e+01
      vertex   -1.776460e+01 -7.500000e-01 3.226460e+01
      vertex   -1.850000e+01 -7.500000e-01 4.175736e+01
    endloop
  endfacet
  facet normal 0.000000e+00 -1.000000e+00 0.000000e+00
    outer loop
      vertex   -1.850000e+01 -7.500000e-01 4.175736e+01
      vertex   -1.776460e+01 -7.500000e-01 3.226460e+01
      vertex   -1.700000e+01 -7.500000e-01 3.150000e+01
    endloop
  endfacet
  facet normal 0.000000e+00 -1.000000e+00 0.000000e+00
    outer loop
      vertex   -1.700000e+01 -7.500000e-01 3.150000e+01
      vertex   -1.700000e+01 -7.500000e-01 1.700545e+01
      vertex   1.700000e+01 -7.500000e-01 3.150000e+01
    endloop
  endfacet
  facet normal 0.000000e+00 -1.000000e+00 -0.000000e+00
    outer loop
      vertex   1.700000e+01 -7.500000e-01 3.150000e+01
      vertex   -1.700000e+01 -7.500000e-01 1.700545e+01
      vertex   1.700000e+01 -7.500000e-01 1.599455e+01
    endloop
  endfacet
  facet normal -0.000000e+00 -1.000000e+00 0.000000e+00
    outer loop
      vertex   1.700000e+01 -7.500000e-01 1.599455e+01
      vertex   -1.700000e+01 -7.500000e-01 1.700545e+01
      vertex   4.517559e-01 -7.500000e-01 1.500000e+00
    endloop
  endfacet
  facet normal 0.000000e+00 -1.000000e+00 0.000000e+00
    outer loop
      vertex   1.700000e+01 -7.500000e-01 1.599455e+01
      vertex   4.517559e-01 -7.500000e-01 1.500000e+00
      vertex   1.475736e+01 -7.500000e-01 1.500000e+00
    endloop
  endfacet
  facet normal 0.000000e+00 -1.000000e+00 0.000000e+00
    outer loop
      vertex   -1.700000e+01 -7.500000e-01 1.500000e+00
      vertex   -1.596844e+01 -7.500000e-01 1.500000e+00
      vertex   -1.700000e+01 -7.500000e-01 1.700545e+01
    endloop
  endfacet
  facet normal 0.000000e+00 -1.000000e+00 0.000000e+00
    outer loop
      vertex   -1.700000e+01 -7.500000e-01 1.700545e+01
      vertex   -1.596844e+01 -7.500000e-01 1.500000e+00
      vertex   -1.475736e+01 -7.500000e-01 1.500000e+00
    endloop
  endfacet
  facet normal 0.000000e+00 -1.000000e+00 0.000000e+00
    outer loop
      vertex   -1.700000e+01 -7.500000e-01 1.700545e+01
      vertex   -1.475736e+01 -7.500000e-01 1.500000e+00
      vertex   4.517559e-01 -7.500000e-01 1.500000e+00
    endloop
  endfacet
  facet normal 0.000000e+00 -1.000000e+00 0.000000e+00
    outer loop
      vertex   1.475736e+01 -7.500000e-01 1.500000e+00
      vertex   1.596844e+01 -7.500000e-01 1.500000e+00
      vertex   1.700000e+01 -7.500000e-01 1.599455e+01
    endloop
  endfacet
  facet normal 0.000000e+00 -1.000000e+00 -0.000000e+00
    outer loop
      vertex   1.700000e+01 -7.500000e-01 1.599455e+01
      vertex   1.596844e+01 -7.500000e-01 1.500000e+00
      vertex   1.700000e+01 -7.500000e-01 1.500000e+00
    endloop
  endfacet
  facet normal 0.000000e+00 -0.000000e+00 1.000000e+00
    outer loop
      vertex   -1.425736e+01 -7.500000e-01 4.600000e+01
      vertex   1.425736e+01 -7.500000e-01 4.600000e+01
      vertex   -1.425736e+01 7.500000e-01 4.600000e+01
    endloop
  endfacet
  facet normal -4.983691e-16 -9.473903e-15 1.000000e+00
    outer loop
      vertex   -1.425736e+01 7.500000e-01 4.600000e+01
      vertex   1.425736e+01 -7.500000e-01 4.600000e+01
      vertex   1.425736e+01 7.500000e-01 4.600000e+01
    endloop
  endfacet
  facet normal -1.000000e+00 0.000000e+00 0.000000e+00
    outer loop
      vertex   -1.850000e+01 -2.287868e+01 2.850000e+01
      vertex   -1.850000e+01 2.287868e+01 2.850000e+01
      vertex   -1.850000e+01 -2.287868e+01 5.000000e-01
    endloop
  endfacet
  facet normal 1.000000e+00 0.000000e+00 0.000000e+00
    outer loop
      vertex   1.850000e+01 2.287868e+01 2.850000e+01
      vertex   1.850000e+01 -2.287868e+01 2.850000e+01
      vertex   1.850000e+01 2.287868e+01 5.000000e-01
    endloop
  endfacet
  facet normal 1.000000e+00 -1.077419e-08 2.722494e-08
    outer loop
      vertex   -1.850000e+01 -7.500000e-01 3.300000e+01
      vertex   -1.850000e+01 -7.500000e-01 4.175736e+01
      vertex   -1.850000e+01 -2.287868e+01 3.300000e+01
    endloop
  endfacet
  facet normal 1.000000e+00 0.000000e+00 0.000000e+00
    outer loop
      vertex   -1.850000e+01 -2.287868e+01 3.300000e+01
      vertex   -1.850000e+01 -7.500000e-01 4.175736e+01
      vertex   -1.850000e+01 -2.287868e+01 4.800000e+01
    endloop
  endfacet
  facet normal 1.000000e+00 0.000000e+00 0.000000e+00
    outer loop
      vertex   -1.850000e+01 -2.287868e+01 4.800000e+01
      vertex   -1.850000e+01 -7.500000e-01 4.175736e+01
      vertex   -1.850000e+01 7.500000e-01 4.175736e+01
    endloop
  endfacet
  facet normal 1.000000e+00 -0.000000e+00 0.000000e+00
    outer loop
      vertex   -1.850000e+01 -2.287868e+01 4.800000e+01
      vertex   -1.850000e+01 7.500000e-01 4.175736e+01
      vertex   -1.850000e+01 2.287868e+01 4.800000e+01
    endloop
  endfacet
  facet normal 1.000000e+00 0.000000e+00 0.000000e+00
    outer loop
      vertex   -1.850000e+01 2.287868e+01 4.800000e+01
      vertex   -1.850000e+01 7.500000e-01 4.175736e+01
      vertex   -1.850000e+01 2.287868e+01 3.300000e+01
    endloop
  endfacet
  facet normal 1.000000e+00 1.077419e-08 2.722494e-08
    outer loop
      vertex   -1.850000e+01 2.287868e+01 3.300000e+01
      vertex   -1.850000e+01 7.500000e-01 4.175736e+01
      vertex   -1.850000e+01 7.500000e-01 3.300000e+01
    endloop
  endfacet
  facet normal 7.071065e-01 -7.718568e-17 7.071071e-01
    outer loop
      vertex   -1.776460e+01 -7.500000e-01 3.226460e+01
      vertex   -1.850000e+01 -7.500000e-01 3.300000e+01
      vertex   -1.850000e+01 -2.287868e+01 3.300000e+01
    endloop
  endfacet
  facet normal 7.071065e-01 7.568209e-17 7.071071e-01
    outer loop
      vertex   -1.850000e+01 7.500000e-01 3.300000e+01
      vertex   -1.771475e+01 7.500000e-01 3.221475e+01
      vertex   -1.850000e+01 2.287868e+01 3.300000e+01
    endloop
  endfacet
  facet normal 7.071065e-01 5.760907e-17 7.071071e-01
    outer loop
      vertex   -1.850000e+01 2.287868e+01 3.300000e+01
      vertex   -1.771475e+01 7.500000e-01 3.221475e+01
      vertex   -1.700000e+01 2.225736e+01 3.150000e+01
    endloop
  endfacet
  facet normal 7.071065e-01 0.000000e+00 7.071071e-01
    outer loop
      vertex   -1.700000e+01 -7.500000e-01 3.150000e+01
      vertex   -1.776460e+01 -7.500000e-01 3.226460e+01
      vertex   -1.700000e+01 -2.225736e+01 3.150000e+01
    endloop
  endfacet
  facet normal 7.071065e-01 -3.836971e-17 7.071071e-01
    outer loop
      vertex   -1.700000e+01 -2.225736e+01 3.150000e+01
      vertex   -1.776460e+01 -7.500000e-01 3.226460e+01
      vertex   -1.850000e+01 -2.287868e+01 3.300000e+01
    endloop
  endfacet
  facet normal 7.071065e-01 0.000000e+00 7.071071e-01
    outer loop
      vertex   -1.771475e+01 7.500000e-01 3.221475e+01
      vertex   -1.700000e+01 7.500000e-01 3.150000e+01
      vertex   -1.700000e+01 2.225736e+01 3.150000e+01
    endloop
  endfacet
  facet normal 1.000000e+00 0.000000e+00 -0.000000e+00
    outer loop
      vertex   -1.700000e+01 -7.500000e-01 1.700545e+01
      vertex   -1.700000e+01 -7.500000e-01 3.150000e+01
      vertex   -1.700000e+01 -2.225736e+01 3.150000e+01
    endloop
  endfacet
  facet normal 1.000000e+00 -0.000000e+00 0.000000e+00
    outer loop
      vertex   -1.700000e+01 7.500000e-01 3.150000e+01
      vertex   -1.700000e+01 7.500000e-01 1.599455e+01
      vertex   -1.700000e+01 2.225736e+01 3.150000e+01
    endloop
  endfacet
  facet normal 1.000000e+00 0.000000e+00 0.000000e+00
    outer loop
      vertex   -1.700000e+01 2.225736e+01 3.150000e+01
      vertex   -1.700000e+01 7.500000e-01 1.599455e+01
      vertex   -1.700000e+01 2.225736e+01 1.500000e+00
    endloop
  endfacet
  facet normal 1.000000e+00 0.000000e+00 -0.000000e+00
    outer loop
      vertex   -1.700000e+01 -7.500000e-01 1.500000e+00
      vertex   -1.700000e+01 -7.500000e-01 1.700545e+01
      vertex   -1.700000e+01 -2.225736e+01 1.500000e+00
    endloop
  endfacet
  facet normal 1.000000e+00 0.000000e+00 0.000000e+00
    outer loop
      vertex   -1.700000e+01 -2.225736e+01 1.500000e+00
      vertex   -1.700000e+01 -7.500000e-01 1.700545e+01
      vertex   -1.700000e+01 -2.225736e+01 3.150000e+01
    endloop
  endfacet
  facet normal 1.000000e+00 0.000000e+00 0.000000e+00
    outer loop
      vertex   -1.700000e+01 7.500000e-01 1.599455e+01
      vertex   -1.700000e+01 7.500000e-01 1.500000e+00
      vertex   -1.700000e+01 2.225736e+01 1.500000e+00
    endloop
  endfacet
  facet normal 0.000000e+00 0.000000e+00 1.000000e+00
    outer loop
      vertex   -1.596844e+01 -7.500000e-01 1.500000e+00
      vertex   -1.700000e+01 -7.500000e-01 1.500000e+00
      vertex   -1.700000e+01 -2.225736e+01 1.500000e+00
    endloop
  endfacet
  facet normal 0.000000e+00 0.000000e+00 1.000000e+00
    outer loop
      vertex   -1.700000e+01 7.500000e-01 1.500000e+00
      vertex   -1.589649e+01 7.500000e-01 1.500000e+00
      vertex   -1.700000e+01 2.225736e+01 1.500000e+00
    endloop
  endfacet
  facet normal -0.000000e+00 0.000000e+00 1.000000e+00
    outer loop
      vertex   -1.700000e+01 2.225736e+01 1.500000e+00
      vertex   -1.589649e+01 7.500000e-01 1.500000e+00
      vertex   -1.475736e+01 2.450000e+01 1.500000e+00
    endloop
  endfacet
  facet normal 0.000000e+00 0.000000e+00 1.000000e+00
    outer loop
      vertex   -1.475736e+01 -7.500000e-01 1.500000e+00
      vertex   -1.596844e+01 -7.500000e-01 1.500000e+00
      vertex   -1.475736e+01 -2.450000e+01 1.500000e+00
    endloop
  endfacet
  facet normal 0.000000e+00 0.000000e+00 1.000000e+00
    outer loop
      vertex   -1.475736e+01 -2.450000e+01 1.500000e+00
      vertex   -1.596844e+01 -7.500000e-01 1.500000e+00
      vertex   -1.700000e+01 -2.225736e+01 1.500000e+00
    endloop
  endfacet
  facet normal 0.000000e+00 0.000000e+00 1.000000e+00
    outer loop
      vertex   -1.589649e+01 7.500000e-01 1.500000e+00
      vertex   -1.475736e+01 7.500000e-01 1.500000e+00
      vertex   -1.475736e+01 2.450000e+01 1.500000e+00
    endloop
  endfacet
  facet normal -0.000000e+00 0.000000e+00 1.000000e+00
    outer loop
      vertex   -1.475736e+01 -7.500000e-01 1.500000e+00
      vertex   -1.475736e+01 -2.450000e+01 1.500000e+00
      vertex   4.517559e-01 -7.500000e-01 1.500000e+00
    endloop
  endfacet
  facet normal 0.000000e+00 0.000000e+00 1.000000e+00
    outer loop
      vertex   4.517559e-01 -7.500000e-01 1.500000e+00
      vertex   -1.475736e+01 -2.450000e+01 1.500000e+00
      vertex   1.475736e+01 -2.450000e+01 1.500000e+00
    endloop
  endfacet
  facet normal 0.000000e+00 0.000000e+00 1.000000e+00
    outer loop
      vertex   -1.475736e+01 7.500000e-01 1.500000e+00
      vertex   -4.517559e-01 7.500000e-01 1.500000e+00
      vertex   -1.475736e+01 2.450000e+01 1.500000e+00
    endloop
  endfacet
  facet normal 0.000000e+00 0.000000e+00 1.000000e+00
    outer loop
      vertex   1.475736e+01 -7.500000e-01 1.500000e+00
      vertex   4.517559e-01 -7.500000e-01 1.500000e+00
      vertex   1.475736e+01 -2.450000e+01 1.500000e+00
    endloop
  endfacet
  facet normal 0.000000e+00 -0.000000e+00 1.000000e+00
    outer loop
      vertex   1.475736e+01 7.500000e-01 1.500000e+00
      vertex   1.475736e+01 2.450000e+01 1.500000e+00
      vertex   -4.517559e-01 7.500000e-01 1.500000e+00
    endloop
  endfacet
  facet normal 0.000000e+00 -0.000000e+00 1.000000e+00
    outer loop
      vertex   -4.517559e-01 7.500000e-01 1.500000e+00
      vertex   1.475736e+01 2.450000e+01 1.500000e+00
      vertex   -1.475736e+01 2.450000e+01 1.500000e+00
    endloop
  endfacet
  facet normal -0.000000e+00 0.000000e+00 1.000000e+00
    outer loop
      vertex   1.475736e+01 -7.500000e-01 1.500000e+00
      vertex   1.475736e+01 -2.450000e+01 1.500000e+00
      vertex   1.596844e+01 -7.500000e-01 1.500000e+00
    endloop
  endfacet
  facet normal 0.000000e+00 0.000000e+00 1.000000e+00
    outer loop
      vertex   1.596844e+01 -7.500000e-01 1.500000e+00
      vertex   1.475736e+01 -2.450000e+01 1.500000e+00
      vertex   1.700000e+01 -2.225736e+01 1.500000e+00
    endloop
  endfacet
  facet normal 0.000000e+00 0.000000e+00 1.000000e+00
    outer loop
      vertex   1.475736e+01 7.500000e-01 1.500000e+00
      vertex   1.589649e+01 7.500000e-01 1.500000e+00
      vertex   1.475736e+01 2.450000e+01 1.500000e+00
    endloop
  endfacet
  facet normal 0.000000e+00 0.000000e+00 1.000000e+00
    outer loop
      vertex   1.700000e+01 -7.500000e-01 1.500000e+00
      vertex   1.596844e+01 -7.500000e-01 1.500000e+00
      vertex   1.700000e+01 -2.225736e+01 1.500000e+00
    endloop
  endfacet
  facet normal 0.000000e+00 -0.000000e+00 1.000000e+00
    outer loop
      vertex   1.700000e+01 7.500000e-01 1.500000e+00
      vertex   1.700000e+01 2.225736e+01 1.500000e+00
      vertex   1.589649e+01 7.500000e-01 1.500000e+00
    endloop
  endfacet
  facet normal 0.000000e+00 -0.000000e+00 1.000000e+00
    outer loop
      vertex   1.589649e+01 7.500000e-01 1.500000e+00
      vertex   1.700000e+01 2.225736e+01 1.500000e+00
      vertex   1.475736e+01 2.450000e+01 1.500000e+00
    endloop
  endfacet
  facet normal -1.000000e+00 0.000000e+00 -0.000000e+00
    outer loop
      vertex   1.700000e+01 -7.500000e-01 1.599455e+01
      vertex   1.700000e+01 -7.500000e-01 1.500000e+00
      vertex   1.700000e+01 -2.225736e+01 1.500000e+00
    endloop
  endfacet
  facet normal -1.000000e+00 0.000000e+00 0.000000e+00
    outer loop
      vertex   1.700000e+01 7.500000e-01 1.500000e+00
      vertex   1.700000e+01 7.500000e-01 1.700545e+01
      vertex   1.700000e+01 2.225736e+01 1.500000e+00
    endloop
  endfacet
  facet normal -1.000000e+00 0.000000e+00 0.000000e+00
    outer loop
      vertex   1.700000e+01 2.225736e+01 1.500000e+00
      vertex   1.700000e+01 7.500000e-01 1.700545e+01
      vertex   1.700000e+01 2.225736e+01 3.150000e+01
    endloop
  endfacet
  facet normal -1.000000e+00 -0.000000e+00 -0.000000e+00
    outer loop
      vertex   1.700000e+01 -7.500000e-01 3.150000e+01
      vertex   1.700000e+01 -7.500000e-01 1.599455e+01
      vertex   1.700000e+01 -2.225736e+01 3.150000e+01
    endloop
  endfacet
  facet normal -1.000000e+00 0.000000e+00 0.000000e+00
    outer loop
      vertex   1.700000e+01 -2.225736e+01 3.150000e+01
      vertex   1.700000e+01 -7.500000e-01 1.599455e+01
      vertex   1.700000e+01 -2.225736e+01 1.500000e+00
    endloop
  endfacet
  facet normal -1.000000e+00 0.000000e+00 0.000000e+00
    outer loop
      vertex   1.700000e+01 7.500000e-01 1.700545e+01
      vertex   1.700000e+01 7.500000e-01 3.150000e+01
      vertex   1.700000e+01 2.225736e+01 3.150000e+01
    endloop
  endfacet
  facet normal -7.071065e-01 0.000000e+00 7.071071e-01
    outer loop
      vertex   1.700000e+01 -7.500000e-01 3.150000e+01
      vertex   1.700000e+01 -2.225736e+01 3.150000e+01
      vertex   1.776460e+01 -7.500000e-01 3.226460e+01
    endloop
  endfacet
  facet normal -7.071065e-01 -3.836971e-17 7.071071e-01
    outer loop
      vertex   1.776460e+01 -7.500000e-01 3.226460e+01
      vertex   1.700000e+01 -2.225736e+01 3.150000e+01
      vertex   1.850000e+01 -2.287868e+01 3.300000e+01
    endloop
  endfacet
  facet normal -7.071065e-01 0.000000e+00 7.071071e-01
    outer loop
      vertex   1.700000e+01 7.500000e-01 3.150000e+01
      vertex   1.771475e+01 7.500000e-01 3.221475e+01
      vertex   1.700000e+01 2.225736e+01 3.150000e+01
    endloop
  endfacet
  facet normal -7.071065e-01 -7.568210e-17 7.071071e-01
    outer loop
      vertex   1.850000e+01 -7.500000e-01 3.300000e+01
      vertex   1.776460e+01 -7.500000e-01 3.226460e+01
      vertex   1.850000e+01 -2.287868e+01 3.300000e+01
    endloop
  endfacet
  facet normal -7.071065e-01 0.000000e+00 7.071071e-01
    outer loop
      vertex   1.850000e+01 7.500000e-01 3.300000e+01
      vertex   1.850000e+01 2.287868e+01 3.300000e+01
      vertex   1.771475e+01 7.500000e-01 3.221475e+01
    endloop
  endfacet
  facet normal -7.071065e-01 5.760907e-17 7.071071e-01
    outer loop
      vertex   1.771475e+01 7.500000e-01 3.221475e+01
      vertex   1.850000e+01 2.287868e+01 3.300000e+01
      vertex   1.700000e+01 2.225736e+01 3.150000e+01
    endloop
  endfacet
  facet normal 0.000000e+00 0.000000e+00 1.000000e+00
    outer loop
      vertex   -1.600000e+01 -2.750000e+01 4.800000e+01
      vertex   -1.850000e+01 -2.287868e+01 4.800000e+01
      vertex   -2.000000e+01 -2.350000e+01 4.800000e+01
    endloop
  endfacet
  facet normal 0.000000e+00 -0.000000e+00 1.000000e+00
    outer loop
      vertex   -1.600000e+01 -2.750000e+01 4.800000e+01
      vertex   -1.537868e+01 -2.600000e+01 4.800000e+01
      vertex   -1.850000e+01 -2.287868e+01 4.800000e+01
    endloop
  endfacet
  facet normal 0.000000e+00 0.000000e+00 1.000000e+00
    outer loop
      vertex   1.600000e+01 -2.750000e+01 4.800000e+01
      vertex   -1.537868e+01 -2.600000e+01 4.800000e+01
      vertex   -1.600000e+01 -2.750000e+01 4.800000e+01
    endloop
  endfacet
  facet normal 0.000000e+00 0.000000e+00 1.000000e+00
    outer loop
      vertex   1.600000e+01 -2.750000e+01 4.800000e+01
      vertex   1.537868e+01 -2.600000e+01 4.800000e+01
      vertex   -1.537868e+01 -2.600000e+01 4.800000e+01
    endloop
  endfacet
  facet normal 0.000000e+00 -0.000000e+00 1.000000e+00
    outer loop
      vertex   1.600000e+01 -2.750000e+01 4.800000e+01
      vertex   1.850000e+01 -2.287868e+01 4.800000e+01
      vertex   1.537868e+01 -2.600000e+01 4.800000e+01
    endloop
  endfacet
  facet normal 0.000000e+00 0.000000e+00 1.000000e+00
    outer loop
      vertex   2.000000e+01 -2.350000e+01 4.800000e+01
      vertex   1.850000e+01 -2.287868e+01 4.800000e+01
      vertex   1.600000e+01 -2.750000e+01 4.800000e+01
    endloop
  endfacet
  facet normal 0.000000e+00 -0.000000e+00 1.000000e+00
    outer loop
      vertex   1.850000e+01 2.287868e+01 4.800000e+01
      vertex   2.000000e+01 2.350000e+01 4.800000e+01
      vertex   1.600000e+01 2.750000e+01 4.800000e+01
    endloop
  endfacet
  facet normal -0.000000e+00 0.000000e+00 1.000000e+00
    outer loop
      vertex   1.850000e+01 2.287868e+01 4.800000e+01
      vertex   2.000000e+01 -2.350000e+01 4.800000e+01
      vertex   2.000000e+01 2.350000e+01 4.800000e+01
    endloop
  endfacet
  facet normal 0.000000e+00 0.000000e+00 1.000000e+00
    outer loop
      vertex   -1.850000e+01 2.287868e+01 4.800000e+01
      vertex   -2.000000e+01 2.350000e+01 4.800000e+01
      vertex   -2.000000e+01 -2.350000e+01 4.800000e+01
    endloop
  endfacet
  facet normal 0.000000e+00 -0.000000e+00 1.000000e+00
    outer loop
      vertex   -1.850000e+01 2.287868e+01 4.800000e+01
      vertex   -1.600000e+01 2.750000e+01 4.800000e+01
      vertex   -2.000000e+01 2.350000e+01 4.800000e+01
    endloop
  endfacet
  facet normal 0.000000e+00 0.000000e+00 1.000000e+00
    outer loop
      vertex   -1.537868e+01 2.600000e+01 4.800000e+01
      vertex   -1.600000e+01 2.750000e+01 4.800000e+01
      vertex   -1.850000e+01 2.287868e+01 4.800000e+01
    endloop
  endfacet
  facet normal 0.000000e+00 0.000000e+00 1.000000e+00
    outer loop
      vertex   1.537868e+01 2.600000e+01 4.800000e+01
      vertex   -1.600000e+01 2.750000e+01 4.800000e+01
      vertex   -1.537868e+01 2.600000e+01 4.800000e+01
    endloop
  endfacet
  facet normal 0.000000e+00 -0.000000e+00 1.000000e+00
    outer loop
      vertex   1.537868e+01 2.600000e+01 4.800000e+01
      vertex   1.600000e+01 2.750000e+01 4.800000e+01
      vertex   -1.600000e+01 2.750000e+01 4.800000e+01
    endloop
  endfacet
  facet normal 0.000000e+00 0.000000e+00 1.000000e+00
    outer loop
      vertex   1.850000e+01 2.287868e+01 4.800000e+01
      vertex   1.600000e+01 2.750000e+01 4.800000e+01
      vertex   1.537868e+01 2.600000e+01 4.800000e+01
    endloop
  endfacet
  facet normal 0.000000e+00 -1.000000e+00 0.000000e+00
    outer loop
      vertex   -1.600000e+01 -2.750000e+01 4.800000e+01
      vertex   1.600000e+01 -2.750000e+01 3.000000e+01
      vertex   1.600000e+01 -2.750000e+01 4.800000e+01
    endloop
  endfacet
  facet normal 0.000000e+00 -1.000000e+00 0.000000e+00
    outer loop
      vertex   -1.600000e+01 -2.750000e+01 3.000000e+01
      vertex   1.600000e+01 -2.750000e+01 3.000000e+01
      vertex   -1.600000e+01 -2.750000e+01 4.800000e+01
    endloop
  endfacet
  facet normal -7.071067e-01 -7.071069e-01 0.000000e+00
    outer loop
      vertex   -2.000000e+01 -2.350000e+01 3.000000e+01
      vertex   -1.600000e+01 -2.750000e+01 4.800000e+01
      vertex   -2.000000e+01 -2.350000e+01 4.800000e+01
    endloop
  endfacet
  facet normal -7.071067e-01 -7.071069e-01 0.000000e+00
    outer loop
      vertex   -1.600000e+01 -2.750000e+01 3.000000e+01
      vertex   -1.600000e+01 -2.750000e+01 4.800000e+01
      vertex   -2.000000e+01 -2.350000e+01 3.000000e+01
    endloop
  endfacet
  facet normal 7.071067e-01 -7.071069e-01 0.000000e+00
    outer loop
      vertex   1.600000e+01 -2.750000e+01 3.000000e+01
      vertex   2.000000e+01 -2.350000e+01 4.800000e+01
      vertex   1.600000e+01 -2.750000e+01 4.800000e+01
    endloop
  endfacet
  facet normal 7.071067e-01 -7.071069e-01 0.000000e+00
    outer loop
      vertex   2.000000e+01 -2.350000e+01 3.000000e+01
      vertex   2.000000e+01 -2.350000e+01 4.800000e+01
      vertex   1.600000e+01 -2.750000e+01 3.000000e+01
    endloop
  endfacet
  facet normal 1.000000e+00 -0.000000e+00 0.000000e+00
    outer loop
      vertex   2.000000e+01 -2.350000e+01 4.800000e+01
      vertex   2.000000e+01 2.350000e+01 3.000000e+01
      vertex   2.000000e+01 2.350000e+01 4.800000e+01
    endloop
  endfacet
  facet normal 1.000000e+00 0.000000e+00 0.000000e+00
    outer loop
      vertex   2.000000e+01 -2.350000e+01 3.000000e+01
      vertex   2.000000e+01 2.350000e+01 3.000000e+01
      vertex   2.000000e+01 -2.350000e+01 4.800000e+01
    endloop
  endfacet
  facet normal -1.000000e+00 -0.000000e+00 0.000000e+00
    outer loop
      vertex   -2.000000e+01 2.350000e+01 4.800000e+01
      vertex   -2.000000e+01 -2.350000e+01 3.000000e+01
      vertex   -2.000000e+01 -2.350000e+01 4.800000e+01
    endloop
  endfacet
  facet normal -1.000000e+00 0.000000e+00 0.000000e+00
    outer loop
      vertex   -2.000000e+01 2.350000e+01 3.000000e+01
      vertex   -2.000000e+01 -2.350000e+01 3.000000e+01
      vertex   -2.000000e+01 2.350000e+01 4.800000e+01
    endloop
  endfacet
  facet normal -7.071067e-01 7.071069e-01 0.000000e+00
    outer loop
      vertex   -1.600000e+01 2.750000e+01 3.000000e+01
      vertex   -2.000000e+01 2.350000e+01 4.800000e+01
      vertex   -1.600000e+01 2.750000e+01 4.800000e+01
    endloop
  endfacet
  facet normal -7.071067e-01 7.071069e-01 0.000000e+00
    outer loop
      vertex   -2.000000e+01 2.350000e+01 3.000000e+01
      vertex   -2.000000e+01 2.350000e+01 4.800000e+01
      vertex   -1.600000e+01 2.750000e+01 3.000000e+01
    endloop
  endfacet
  facet normal 0.000000e+00 1.000000e+00 0.000000e+00
    outer loop
      vertex   1.600000e+01 2.750000e+01 4.800000e+01
      vertex   -1.600000e+01 2.750000e+01 3.000000e+01
      vertex   -1.600000e+01 2.750000e+01 4.800000e+01
    endloop
  endfacet
  facet normal 0.000000e+00 1.000000e+00 -0.000000e+00
    outer loop
      vertex   1.600000e+01 2.750000e+01 3.000000e+01
      vertex   -1.600000e+01 2.750000e+01 3.000000e+01
      vertex   1.600000e+01 2.750000e+01 4.800000e+01
    endloop
  endfacet
  facet normal 7.071067e-01 7.071069e-01 -0.000000e+00
    outer loop
      vertex   2.000000e+01 2.350000e+01 3.000000e+01
      vertex   1.600000e+01 2.750000e+01 4.800000e+01
      vertex   2.000000e+01 2.350000e+01 4.800000e+01
    endloop
  endfacet
  facet normal 7.071067e-01 7.071069e-01 -0.000000e+00
    outer loop
      vertex   1.600000e+01 2.750000e+01 3.000000e+01
      vertex   1.600000e+01 2.750000e+01 4.800000e+01
      vertex   2.000000e+01 2.350000e+01 3.000000e+01
    endloop
  endfacet
  facet normal 1.000000e+00 0.000000e+00 0.000000e+00
    outer loop
      vertex   1.850000e+01 2.287868e+01 5.000000e-01
      vertex   1.850000e+01 -2.287868e+01 2.850000e+01
      vertex   1.850000e+01 -2.287868e+01 5.000000e-01
    endloop
  endfacet
  facet normal 7.071068e-01 -7.071068e-01 0.000000e+00
    outer loop
      vertex   1.537868e+01 -2.600000e+01 2.850000e+01
      vertex   1.850000e+01 -2.287868e+01 5.000000e-01
      vertex   1.850000e+01 -2.287868e+01 2.850000e+01
    endloop
  endfacet
  facet normal 7.071068e-01 -7.071068e-01 0.000000e+00
    outer loop
      vertex   1.537868e+01 -2.600000e+01 5.000000e-01
      vertex   1.850000e+01 -2.287868e+01 5.000000e-01
      vertex   1.537868e+01 -2.600000e+01 2.850000e+01
    endloop
  endfacet
  facet normal 0.000000e+00 1.000000e+00 0.000000e+00
    outer loop
      vertex   1.537868e+01 -2.600000e+01 4.800000e+01
      vertex   -1.537868e+01 -2.600000e+01 3.300000e+01
      vertex   -1.537868e+01 -2.600000e+01 4.800000e+01
    endloop
  endfacet
  facet normal 0.000000e+00 1.000000e+00 -0.000000e+00
    outer loop
      vertex   1.537868e+01 -2.600000e+01 3.300000e+01
      vertex   -1.537868e+01 -2.600000e+01 3.300000e+01
      vertex   1.537868e+01 -2.600000e+01 4.800000e+01
    endloop
  endfacet
  facet normal 7.071068e-01 7.071068e-01 -0.000000e+00
    outer loop
      vertex   -1.537868e+01 -2.600000e+01 3.300000e+01
      vertex   -1.850000e+01 -2.287868e+01 4.800000e+01
      vertex   -1.537868e+01 -2.600000e+01 4.800000e+01
    endloop
  endfacet
  facet normal 7.071068e-01 7.071068e-01 -0.000000e+00
    outer loop
      vertex   -1.850000e+01 -2.287868e+01 3.300000e+01
      vertex   -1.850000e+01 -2.287868e+01 4.800000e+01
      vertex   -1.537868e+01 -2.600000e+01 3.300000e+01
    endloop
  endfacet
  facet normal -7.071068e-01 7.071068e-01 0.000000e+00
    outer loop
      vertex   1.850000e+01 -2.287868e+01 3.300000e+01
      vertex   1.537868e+01 -2.600000e+01 4.800000e+01
      vertex   1.850000e+01 -2.287868e+01 4.800000e+01
    endloop
  endfacet
  facet normal -7.071068e-01 7.071068e-01 0.000000e+00
    outer loop
      vertex   1.537868e+01 -2.600000e+01 3.300000e+01
      vertex   1.537868e+01 -2.600000e+01 4.800000e+01
      vertex   1.850000e+01 -2.287868e+01 3.300000e+01
    endloop
  endfacet
  facet normal 7.071070e-01 -7.071066e-01 0.000000e+00
    outer loop
      vertex   -1.700000e+01 2.225736e+01 3.150000e+01
      vertex   -1.475736e+01 2.450000e+01 1.500000e+00
      vertex   -1.475736e+01 2.450000e+01 3.150000e+01
    endloop
  endfacet
  facet normal 7.071070e-01 -7.071066e-01 0.000000e+00
    outer loop
      vertex   -1.700000e+01 2.225736e+01 1.500000e+00
      vertex   -1.475736e+01 2.450000e+01 1.500000e+00
      vertex   -1.700000e+01 2.225736e+01 3.150000e+01
    endloop
  endfacet
  facet normal 0.000000e+00 -1.000000e+00 0.000000e+00
    outer loop
      vertex   -1.475736e+01 2.450000e+01 3.150000e+01
      vertex   1.475736e+01 2.450000e+01 1.500000e+00
      vertex   1.475736e+01 2.450000e+01 3.150000e+01
    endloop
  endfacet
  facet normal 0.000000e+00 -1.000000e+00 0.000000e+00
    outer loop
      vertex   -1.475736e+01 2.450000e+01 1.500000e+00
      vertex   1.475736e+01 2.450000e+01 1.500000e+00
      vertex   -1.475736e+01 2.450000e+01 3.150000e+01
    endloop
  endfacet
  facet normal -7.071070e-01 -7.071066e-01 0.000000e+00
    outer loop
      vertex   1.475736e+01 2.450000e+01 3.150000e+01
      vertex   1.700000e+01 2.225736e+01 1.500000e+00
      vertex   1.700000e+01 2.225736e+01 3.150000e+01
    endloop
  endfacet
  facet normal -7.071070e-01 -7.071066e-01 0.000000e+00
    outer loop
      vertex   1.475736e+01 2.450000e+01 1.500000e+00
      vertex   1.700000e+01 2.225736e+01 1.500000e+00
      vertex   1.475736e+01 2.450000e+01 3.150000e+01
    endloop
  endfacet
  facet normal -7.071070e-01 7.071066e-01 0.000000e+00
    outer loop
      vertex   1.700000e+01 -2.225736e+01 3.150000e+01
      vertex   1.475736e+01 -2.450000e+01 1.500000e+00
      vertex   1.475736e+01 -2.450000e+01 3.150000e+01
    endloop
  endfacet
  facet normal -7.071070e-01 7.071066e-01 0.000000e+00
    outer loop
      vertex   1.700000e+01 -2.225736e+01 1.500000e+00
      vertex   1.475736e+01 -2.450000e+01 1.500000e+00
      vertex   1.700000e+01 -2.225736e+01 3.150000e+01
    endloop
  endfacet
  facet normal 0.000000e+00 1.000000e+00 0.000000e+00
    outer loop
      vertex   1.475736e+01 -2.450000e+01 3.150000e+01
      vertex   -1.475736e+01 -2.450000e+01 1.500000e+00
      vertex   -1.475736e+01 -2.450000e+01 3.150000e+01
    endloop
  endfacet
  facet normal 0.000000e+00 1.000000e+00 -0.000000e+00
    outer loop
      vertex   1.475736e+01 -2.450000e+01 1.500000e+00
      vertex   -1.475736e+01 -2.450000e+01 1.500000e+00
      vertex   1.475736e+01 -2.450000e+01 3.150000e+01
    endloop
  endfacet
  facet normal 7.071070e-01 7.071066e-01 0.000000e+00
    outer loop
      vertex   -1.475736e+01 -2.450000e+01 3.150000e+01
      vertex   -1.700000e+01 -2.225736e+01 1.500000e+00
      vertex   -1.700000e+01 -2.225736e+01 3.150000e+01
    endloop
  endfacet
  facet normal 7.071070e-01 7.071066e-01 -0.000000e+00
    outer loop
      vertex   -1.475736e+01 -2.450000e+01 1.500000e+00
      vertex   -1.700000e+01 -2.225736e+01 1.500000e+00
      vertex   -1.475736e+01 -2.450000e+01 3.150000e+01
    endloop
  endfacet
  facet normal -7.071068e-01 -7.071068e-01 0.000000e+00
    outer loop
      vertex   1.537868e+01 2.600000e+01 3.300000e+01
      vertex   1.850000e+01 2.287868e+01 4.800000e+01
      vertex   1.537868e+01 2.600000e+01 4.800000e+01
    endloop
  endfacet
  facet normal -7.071068e-01 -7.071068e-01 0.000000e+00
    outer loop
      vertex   1.850000e+01 2.287868e+01 3.300000e+01
      vertex   1.850000e+01 2.287868e+01 4.800000e+01
      vertex   1.537868e+01 2.600000e+01 3.300000e+01
    endloop
  endfacet
  facet normal 0.000000e+00 -1.000000e+00 0.000000e+00
    outer loop
      vertex   -1.537868e+01 2.600000e+01 4.800000e+01
      vertex   1.537868e+01 2.600000e+01 3.300000e+01
      vertex   1.537868e+01 2.600000e+01 4.800000e+01
    endloop
  endfacet
  facet normal 0.000000e+00 -1.000000e+00 0.000000e+00
    outer loop
      vertex   -1.537868e+01 2.600000e+01 3.300000e+01
      vertex   1.537868e+01 2.600000e+01 3.300000e+01
      vertex   -1.537868e+01 2.600000e+01 4.800000e+01
    endloop
  endfacet
  facet normal 7.071068e-01 -7.071068e-01 0.000000e+00
    outer loop
      vertex   -1.850000e+01 2.287868e+01 3.300000e+01
      vertex   -1.537868e+01 2.600000e+01 4.800000e+01
      vertex   -1.850000e+01 2.287868e+01 4.800000e+01
    endloop
  endfacet
  facet normal 7.071068e-01 -7.071068e-01 0.000000e+00
    outer loop
      vertex   -1.537868e+01 2.600000e+01 3.300000e+01
      vertex   -1.537868e+01 2.600000e+01 4.800000e+01
      vertex   -1.850000e+01 2.287868e+01 3.300000e+01
    endloop
  endfacet
  facet normal -4.999997e-01 4.999997e-01 7.071072e-01
    outer loop
      vertex   1.700000e+01 -2.225736e+01 3.150000e+01
      vertex   1.537868e+01 -2.600000e+01 3.300000e+01
      vertex   1.850000e+01 -2.287868e+01 3.300000e+01
    endloop
  endfacet
  facet normal -5.000000e-01 4.999997e-01 7.071070e-01
    outer loop
      vertex   1.475736e+01 -2.450000e+01 3.150000e+01
      vertex   1.537868e+01 -2.600000e+01 3.300000e+01
      vertex   1.700000e+01 -2.225736e+01 3.150000e+01
    endloop
  endfacet
  facet normal -5.000000e-01 -4.999997e-01 7.071070e-01
    outer loop
      vertex   1.700000e+01 2.225736e+01 3.150000e+01
      vertex   1.537868e+01 2.600000e+01 3.300000e+01
      vertex   1.475736e+01 2.450000e+01 3.150000e+01
    endloop
  endfacet
  facet normal -4.999997e-01 -4.999997e-01 7.071072e-01
    outer loop
      vertex   1.850000e+01 2.287868e+01 3.300000e+01
      vertex   1.537868e+01 2.600000e+01 3.300000e+01
      vertex   1.700000e+01 2.225736e+01 3.150000e+01
    endloop
  endfacet
  facet normal 0.000000e+00 -7.071062e-01 7.071073e-01
    outer loop
      vertex   1.475736e+01 2.450000e+01 3.150000e+01
      vertex   -1.537868e+01 2.600000e+01 3.300000e+01
      vertex   -1.475736e+01 2.450000e+01 3.150000e+01
    endloop
  endfacet
  facet normal 0.000000e+00 -7.071062e-01 7.071073e-01
    outer loop
      vertex   1.537868e+01 2.600000e+01 3.300000e+01
      vertex   -1.537868e+01 2.600000e+01 3.300000e+01
      vertex   1.475736e+01 2.450000e+01 3.150000e+01
    endloop
  endfacet
  facet normal 4.999997e-01 -4.999997e-01 7.071072e-01
    outer loop
      vertex   -1.700000e+01 2.225736e+01 3.150000e+01
      vertex   -1.537868e+01 2.600000e+01 3.300000e+01
      vertex   -1.850000e+01 2.287868e+01 3.300000e+01
    endloop
  endfacet
  facet normal 5.000000e-01 -4.999997e-01 7.071070e-01
    outer loop
      vertex   -1.475736e+01 2.450000e+01 3.150000e+01
      vertex   -1.537868e+01 2.600000e+01 3.300000e+01
      vertex   -1.700000e+01 2.225736e+01 3.150000e+01
    endloop
  endfacet
  facet normal 4.999997e-01 4.999997e-01 7.071072e-01
    outer loop
      vertex   -1.537868e+01 -2.600000e+01 3.300000e+01
      vertex   -1.700000e+01 -2.225736e+01 3.150000e+01
      vertex   -1.850000e+01 -2.287868e+01 3.300000e+01
    endloop
  endfacet
  facet normal 5.000000e-01 4.999997e-01 7.071070e-01
    outer loop
      vertex   -1.475736e+01 -2.450000e+01 3.150000e+01
      vertex   -1.700000e+01 -2.225736e+01 3.150000e+01
      vertex   -1.537868e+01 -2.600000e+01 3.300000e+01
    endloop
  endfacet
  facet normal 0.000000e+00 7.071062e-01 7.071073e-01
    outer loop
      vertex   1.537868e+01 -2.600000e+01 3.300000e+01
      vertex   -1.475736e+01 -2.450000e+01 3.150000e+01
      vertex   -1.537868e+01 -2.600000e+01 3.300000e+01
    endloop
  endfacet
  facet normal 0.000000e+00 7.071062e-01 7.071073e-01
    outer loop
      vertex   1.475736e+01 -2.450000e+01 3.150000e+01
      vertex   -1.475736e+01 -2.450000e+01 3.150000e+01
      vertex   1.537868e+01 -2.600000e+01 3.300000e+01
    endloop
  endfacet
  facet normal -7.071068e-01 -7.071068e-01 0.000000e+00
    outer loop
      vertex   -1.850000e+01 -2.287868e+01 2.850000e+01
      vertex   -1.537868e+01 -2.600000e+01 5.000000e-01
      vertex   -1.537868e+01 -2.600000e+01 2.850000e+01
    endloop
  endfacet
  facet normal -7.071068e-01 -7.071068e-01 0.000000e+00
    outer loop
      vertex   -1.850000e+01 -2.287868e+01 5.000000e-01
      vertex   -1.537868e+01 -2.600000e+01 5.000000e-01
      vertex   -1.850000e+01 -2.287868e+01 2.850000e+01
    endloop
  endfacet
  facet normal 0.000000e+00 -1.000000e+00 0.000000e+00
    outer loop
      vertex   -1.537868e+01 -2.600000e+01 2.850000e+01
      vertex   1.537868e+01 -2.600000e+01 5.000000e-01
      vertex   1.537868e+01 -2.600000e+01 2.850000e+01
    endloop
  endfacet
  facet normal 0.000000e+00 -1.000000e+00 0.000000e+00
    outer loop
      vertex   -1.537868e+01 -2.600000e+01 5.000000e-01
      vertex   1.537868e+01 -2.600000e+01 5.000000e-01
      vertex   -1.537868e+01 -2.600000e+01 2.850000e+01
    endloop
  endfacet
  facet normal -7.071065e-01 0.000000e+00 -7.071071e-01
    outer loop
      vertex   -2.000000e+01 -2.350000e+01 3.000000e+01
      vertex   -1.850000e+01 2.287868e+01 2.850000e+01
      vertex   -1.850000e+01 -2.287868e+01 2.850000e+01
    endloop
  endfacet
  facet normal -7.071065e-01 -0.000000e+00 -7.071071e-01
    outer loop
      vertex   -2.000000e+01 2.350000e+01 3.000000e+01
      vertex   -1.850000e+01 2.287868e+01 2.850000e+01
      vertex   -2.000000e+01 -2.350000e+01 3.000000e+01
    endloop
  endfacet
  facet normal -4.999998e-01 -4.999998e-01 -7.071070e-01
    outer loop
      vertex   -1.600000e+01 -2.750000e+01 3.000000e+01
      vertex   -1.850000e+01 -2.287868e+01 2.850000e+01
      vertex   -1.537868e+01 -2.600000e+01 2.850000e+01
    endloop
  endfacet
  facet normal -4.999996e-01 -4.999998e-01 -7.071072e-01
    outer loop
      vertex   -2.000000e+01 -2.350000e+01 3.000000e+01
      vertex   -1.850000e+01 -2.287868e+01 2.850000e+01
      vertex   -1.600000e+01 -2.750000e+01 3.000000e+01
    endloop
  endfacet
  facet normal -0.000000e+00 -7.071068e-01 -7.071068e-01
    outer loop
      vertex   1.537868e+01 -2.600000e+01 2.850000e+01
      vertex   -1.600000e+01 -2.750000e+01 3.000000e+01
      vertex   -1.537868e+01 -2.600000e+01 2.850000e+01
    endloop
  endfacet
  facet normal -0.000000e+00 -7.071068e-01 -7.071068e-01
    outer loop
      vertex   1.600000e+01 -2.750000e+01 3.000000e+01
      vertex   -1.600000e+01 -2.750000e+01 3.000000e+01
      vertex   1.537868e+01 -2.600000e+01 2.850000e+01
    endloop
  endfacet
  facet normal 4.999998e-01 -4.999998e-01 -7.071070e-01
    outer loop
      vertex   1.850000e+01 -2.287868e+01 2.850000e+01
      vertex   1.600000e+01 -2.750000e+01 3.000000e+01
      vertex   1.537868e+01 -2.600000e+01 2.850000e+01
    endloop
  endfacet
  facet normal 4.999996e-01 -4.999998e-01 -7.071072e-01
    outer loop
      vertex   2.000000e+01 -2.350000e+01 3.000000e+01
      vertex   1.600000e+01 -2.750000e+01 3.000000e+01
      vertex   1.850000e+01 -2.287868e+01 2.850000e+01
    endloop
  endfacet
  facet normal 7.071065e-01 0.000000e+00 -7.071071e-01
    outer loop
      vertex   1.850000e+01 2.287868e+01 2.850000e+01
      vertex   2.000000e+01 -2.350000e+01 3.000000e+01
      vertex   1.850000e+01 -2.287868e+01 2.850000e+01
    endloop
  endfacet
  facet normal 7.071065e-01 0.000000e+00 -7.071071e-01
    outer loop
      vertex   2.000000e+01 2.350000e+01 3.000000e+01
      vertex   2.000000e+01 -2.350000e+01 3.000000e+01
      vertex   1.850000e+01 2.287868e+01 2.850000e+01
    endloop
  endfacet
  facet normal 4.999998e-01 4.999998e-01 -7.071070e-01
    outer loop
      vertex   1.600000e+01 2.750000e+01 3.000000e+01
      vertex   1.850000e+01 2.287868e+01 2.850000e+01
      vertex   1.537868e+01 2.600000e+01 2.850000e+01
    endloop
  endfacet
  facet normal 4.999996e-01 4.999998e-01 -7.071072e-01
    outer loop
      vertex   2.000000e+01 2.350000e+01 3.000000e+01
      vertex   1.850000e+01 2.287868e+01 2.850000e+01
      vertex   1.600000e+01 2.750000e+01 3.000000e+01
    endloop
  endfacet
  facet normal 0.000000e+00 7.071068e-01 -7.071068e-01
    outer loop
      vertex   -1.537868e+01 2.600000e+01 2.850000e+01
      vertex   1.600000e+01 2.750000e+01 3.000000e+01
      vertex   1.537868e+01 2.600000e+01 2.850000e+01
    endloop
  endfacet
  facet normal 0.000000e+00 7.071068e-01 -7.071068e-01
    outer loop
      vertex   -1.600000e+01 2.750000e+01 3.000000e+01
      vertex   1.600000e+01 2.750000e+01 3.000000e+01
      vertex   -1.537868e+01 2.600000e+01 2.850000e+01
    endloop
  endfacet
  facet normal -4.999998e-01 4.999998e-01 -7.071070e-01
    outer loop
      vertex   -1.850000e+01 2.287868e+01 2.850000e+01
      vertex   -1.600000e+01 2.750000e+01 3.000000e+01
      vertex   -1.537868e+01 2.600000e+01 2.850000e+01
    endloop
  endfacet
  facet normal -4.999996e-01 4.999998e-01 -7.071072e-01
    outer loop
      vertex   -2.000000e+01 2.350000e+01 3.000000e+01
      vertex   -1.600000e+01 2.750000e+01 3.000000e+01
      vertex   -1.850000e+01 2.287868e+01 2.850000e+01
    endloop
  endfacet
  facet normal 0.000000e+00 0.000000e+00 -1.000000e+00
    outer loop
      vertex   1.800000e+01 -2.267157e+01 0.000000e+00
      vertex   1.517157e+01 2.550000e+01 0.000000e+00
      vertex   1.800000e+01 2.267157e+01 0.000000e+00
    endloop
  endfacet
  facet normal 0.000000e+00 0.000000e+00 -1.000000e+00
    outer loop
      vertex   1.517157e+01 -2.550000e+01 0.000000e+00
      vertex   1.517157e+01 2.550000e+01 0.000000e+00
      vertex   1.800000e+01 -2.267157e+01 0.000000e+00
    endloop
  endfacet
  facet normal 0.000000e+00 0.000000e+00 -1.000000e+00
    outer loop
      vertex   -1.517157e+01 -2.550000e+01 0.000000e+00
      vertex   1.517157e+01 2.550000e+01 0.000000e+00
      vertex   1.517157e+01 -2.550000e+01 0.000000e+00
    endloop
  endfacet
  facet normal 0.000000e+00 0.000000e+00 -1.000000e+00
    outer loop
      vertex   -1.517157e+01 -2.550000e+01 0.000000e+00
      vertex   -1.517157e+01 2.550000e+01 0.000000e+00
      vertex   1.517157e+01 2.550000e+01 0.000000e+00
    endloop
  endfacet
  facet normal 0.000000e+00 0.000000e+00 -1.000000e+00
    outer loop
      vertex   -1.800000e+01 -2.267157e+01 0.000000e+00
      vertex   -1.517157e+01 2.550000e+01 0.000000e+00
      vertex   -1.517157e+01 -2.550000e+01 0.000000e+00
    endloop
  endfacet
  facet normal 0.000000e+00 0.000000e+00 -1.000000e+00
    outer loop
      vertex   -1.800000e+01 2.267157e+01 0.000000e+00
      vertex   -1.517157e+01 2.550000e+01 0.000000e+00
      vertex   -1.800000e+01 -2.267157e+01 0.000000e+00
    endloop
  endfacet
  facet normal -1.000000e+00 0.000000e+00 0.000000e+00
    outer loop
      vertex   -1.850000e+01 -2.287868e+01 5.000000e-01
      vertex   -1.850000e+01 2.287868e+01 2.850000e+01
      vertex   -1.850000e+01 2.287868e+01 5.000000e-01
    endloop
  endfacet
  facet normal -7.071068e-01 7.071068e-01 0.000000e+00
    outer loop
      vertex   -1.537868e+01 2.600000e+01 2.850000e+01
      vertex   -1.850000e+01 2.287868e+01 5.000000e-01
      vertex   -1.850000e+01 2.287868e+01 2.850000e+01
    endloop
  endfacet
  facet normal -7.071068e-01 7.071068e-01 0.000000e+00
    outer loop
      vertex   -1.537868e+01 2.600000e+01 5.000000e-01
      vertex   -1.850000e+01 2.287868e+01 5.000000e-01
      vertex   -1.537868e+01 2.600000e+01 2.850000e+01
    endloop
  endfacet
  facet normal 0.000000e+00 1.000000e+00 0.000000e+00
    outer loop
      vertex   1.537868e+01 2.600000e+01 2.850000e+01
      vertex   -1.537868e+01 2.600000e+01 5.000000e-01
      vertex   -1.537868e+01 2.600000e+01 2.850000e+01
    endloop
  endfacet
  facet normal 0.000000e+00 1.000000e+00 -0.000000e+00
    outer loop
      vertex   1.537868e+01 2.600000e+01 5.000000e-01
      vertex   -1.537868e+01 2.600000e+01 5.000000e-01
      vertex   1.537868e+01 2.600000e+01 2.850000e+01
    endloop
  endfacet
  facet normal 7.071068e-01 7.071068e-01 0.000000e+00
    outer loop
      vertex   1.850000e+01 2.287868e+01 2.850000e+01
      vertex   1.537868e+01 2.600000e+01 5.000000e-01
      vertex   1.537868e+01 2.600000e+01 2.850000e+01
    endloop
  endfacet
  facet normal 7.071068e-01 7.071068e-01 -0.000000e+00
    outer loop
      vertex   1.850000e+01 2.287868e+01 5.000000e-01
      vertex   1.537868e+01 2.600000e+01 5.000000e-01
      vertex   1.850000e+01 2.287868e+01 2.850000e+01
    endloop
  endfacet
  facet normal -4.999995e-01 -4.999997e-01 -7.071073e-01
    outer loop
      vertex   -1.537868e+01 -2.600000e+01 5.000000e-01
      vertex   -1.800000e+01 -2.267157e+01 0.000000e+00
      vertex   -1.517157e+01 -2.550000e+01 0.000000e+00
    endloop
  endfacet
  facet normal -5.000001e-01 -5.000001e-01 -7.071067e-01
    outer loop
      vertex   -1.850000e+01 -2.287868e+01 5.000000e-01
      vertex   -1.800000e+01 -2.267157e+01 0.000000e+00
      vertex   -1.537868e+01 -2.600000e+01 5.000000e-01
    endloop
  endfacet
  facet normal -4.999995e-01 4.999997e-01 -7.071073e-01
    outer loop
      vertex   -1.800000e+01 2.267157e+01 0.000000e+00
      vertex   -1.537868e+01 2.600000e+01 5.000000e-01
      vertex   -1.517157e+01 2.550000e+01 0.000000e+00
    endloop
  endfacet
  facet normal -5.000001e-01 5.000001e-01 -7.071067e-01
    outer loop
      vertex   -1.850000e+01 2.287868e+01 5.000000e-01
      vertex   -1.537868e+01 2.600000e+01 5.000000e-01
      vertex   -1.800000e+01 2.267157e+01 0.000000e+00
    endloop
  endfacet
  facet normal 0.000000e+00 7.071054e-01 -7.071081e-01
    outer loop
      vertex   1.537868e+01 2.600000e+01 5.000000e-01
      vertex   -1.517157e+01 2.550000e+01 0.000000e+00
      vertex   -1.537868e+01 2.600000e+01 5.000000e-01
    endloop
  endfacet
  facet normal 0.000000e+00 7.071054e-01 -7.071081e-01
    outer loop
      vertex   1.517157e+01 2.550000e+01 0.000000e+00
      vertex   -1.517157e+01 2.550000e+01 0.000000e+00
      vertex   1.537868e+01 2.600000e+01 5.000000e-01
    endloop
  endfacet
  facet normal 5.000001e-01 5.000001e-01 -7.071067e-01
    outer loop
      vertex   1.800000e+01 2.267157e+01 0.000000e+00
      vertex   1.537868e+01 2.600000e+01 5.000000e-01
      vertex   1.850000e+01 2.287868e+01 5.000000e-01
    endloop
  endfacet
  facet normal 4.999995e-01 4.999997e-01 -7.071073e-01
    outer loop
      vertex   1.517157e+01 2.550000e+01 0.000000e+00
      vertex   1.537868e+01 2.600000e+01 5.000000e-01
      vertex   1.800000e+01 2.267157e+01 0.000000e+00
    endloop
  endfacet
  facet normal -7.071071e-01 0.000000e+00 -7.071064e-01
    outer loop
      vertex   -1.800000e+01 -2.267157e+01 0.000000e+00
      vertex   -1.850000e+01 2.287868e+01 5.000000e-01
      vertex   -1.800000e+01 2.267157e+01 0.000000e+00
    endloop
  endfacet
  facet normal -7.071071e-01 0.000000e+00 -7.071064e-01
    outer loop
      vertex   -1.850000e+01 -2.287868e+01 5.000000e-01
      vertex   -1.850000e+01 2.287868e+01 5.000000e-01
      vertex   -1.800000e+01 -2.267157e+01 0.000000e+00
    endloop
  endfacet
  facet normal 7.071071e-01 0.000000e+00 -7.071064e-01
    outer loop
      vertex   1.850000e+01 -2.287868e+01 5.000000e-01
      vertex   1.800000e+01 2.267157e+01 0.000000e+00
      vertex   1.850000e+01 2.287868e+01 5.000000e-01
    endloop
  endfacet
  facet normal 7.071071e-01 0.000000e+00 -7.071064e-01
    outer loop
      vertex   1.800000e+01 -2.267157e+01 0.000000e+00
      vertex   1.800000e+01 2.267157e+01 0.000000e+00
      vertex   1.850000e+01 -2.287868e+01 5.000000e-01
    endloop
  endfacet
  facet normal 5.000001e-01 -5.000001e-01 -7.071067e-01
    outer loop
      vertex   1.537868e+01 -2.600000e+01 5.000000e-01
      vertex   1.800000e+01 -2.267157e+01 0.000000e+00
      vertex   1.850000e+01 -2.287868e+01 5.000000e-01
    endloop
  endfacet
  facet normal 4.999995e-01 -4.999997e-01 -7.071073e-01
    outer loop
      vertex   1.517157e+01 -2.550000e+01 0.000000e+00
      vertex   1.800000e+01 -2.267157e+01 0.000000e+00
      vertex   1.537868e+01 -2.600000e+01 5.000000e-01
    endloop
  endfacet
  facet normal 0.000000e+00 -7.071054e-01 -7.071081e-01
    outer loop
      vertex   -1.537868e+01 -2.600000e+01 5.000000e-01
      vertex   1.517157e+01 -2.550000e+01 0.000000e+00
      vertex   1.537868e+01 -2.600000e+01 5.000000e-01
    endloop
  endfacet
  facet normal 0.000000e+00 -7.071054e-01 -7.071081e-01
    outer loop
      vertex   -1.517157e+01 -2.550000e+01 0.000000e+00
      vertex   1.517157e+01 -2.550000e+01 0.000000e+00
      vertex   -1.537868e+01 -2.600000e+01 5.000000e-01
    endloop
  endfacet
endsolid
